<?xml version="1.0" encoding="UTF-8"?>
<svg version="1.1" viewBox="0 0 800 800" width="1280" height="1280" xmlns="http://www.w3.org/2000/svg">
<path transform="translate(381)" d="m0 0h36l30 3 36 6 32 8 27 9 26 11 24 12 17 10 24 16 13 10 16 13 13 12 23 23 9 11 10 12 11 15 10 15 14 24 8 15 12 27 10 28 8 30 6 31 4 31v55l-3 25-4 24-6 27-7 24-11 29-12 26-13 23-12 19-13 18-13 16-7 8-12 13-16 16-8 7-13 11-12 9-20 14-22 13-27 14-21 9-28 10-30 8-31 6-21 3-9 1h-57l-22-3-30-5-26-6-36-12-24-10-16-8-19-10-19-12-17-12-14-11-13-11-13-12-18-18-9-11-9-10-14-19-10-15-12-20-14-27-10-24-12-36-7-29-5-31-3-30v-37l4-35 5-28 8-32 11-32 11-25 10-20 13-22 11-16 14-19 13-15 7-8 12-13 5-5h2v-2l8-7 14-12 13-10 17-12 19-12 16-9 16-8 17-8 30-11 28-8 35-7 30-4zm-31 172-20 3-18 6-19 10-14 11-11 11-10 14-8 16-5 14-3 17v19l3 17 7 19 6 11 9 12 9 10 11 9 8 5 1 2-9 2-21 9-20 11-14 10-14 11-17 17-9 11-9 13-9 15-8 17-8 24-4 20-1 8v17l3 5 5 4 5 1h389l7-3 4-5 1-2v-12l-2-18-5-21-6-17-8-18-11-18-9-12-12-14-10-10-11-9-15-11-15-9-16-8-22-8h-2v-2l5-2 11-8 14-14 10-14 8-17 4-14 2-9 1-18-2-17-6-20-7-14-9-13-11-12-12-10-15-9-16-7-15-4-16-2zm159 71-9 2 1 7 3 12 1 8v24l-5 25-6 16-10 19-9 11v3l20 12 16 12 11 9 20 20 13 17 10 15 10 19 8 20 7 24 4 25v28h82l6-4 3-5v-10l-4-24-7-21-9-19-10-15-9-11-10-11-8-7-16-12-17-10-16-7-10-3 1-3 11-8 11-11 10-15 6-15 3-14v-24l-4-17-8-16-7-10-9-10-14-11-16-8-17-5-12-2z" fill="#A0A0A0"/>
</svg>
