<?xml version="1.0" encoding="UTF-8"?>
<svg version="1.1" viewBox="0 0 800 800" width="1280" height="1280" xmlns="http://www.w3.org/2000/svg">
<path transform="translate(391,1)" d="m0 0h18l30 2 29 4 29 6 27 8 20 7 25 11 24 12 17 10 18 12 19 14 13 11 14 12 19 19 9 11 13 15 10 14 12 18 13 22 9 17 14 32 11 33 7 29 5 31 2 22 1 22v13l-2 31-4 28-7 34-11 35-12 29-8 17-13 23-14 22-13 17-8 10-12 14-14 15-17 16-11 9-18 14-18 12-20 12-16 9-31 14-28 10-24 7-28 6-27 4-22 2h-37l-25-2-29-4-29-6-30-9-31-12-29-14-19-11-24-16-12-9-11-9-14-12-9-8v-2l-4-2-14-15-9-10-11-14-12-16-13-20-13-23-11-23-11-28-8-24-8-34-5-33-2-25v-34l3-33 5-30 7-29 12-36 11-25 11-22 12-20 12-18 12-16 11-13 7-8 9-10 18-18 11-9 13-11 18-13 17-11 21-12 19-10 31-13 31-10 29-7 25-4 23-3zm9 144-11 6-14 12-9 7-16 13-14 11-16 13-14 11-16 13-14 11-10 8-16 13-17 13-21 18-2 8v256l2 7 7 6h116l6-5 2-7v-158l121 1 1 160 4 7 4 2h117l6-5 2-8v-260l-4-6-15-12-14-11-17-13-26-20-18-14-13-10-14-11-17-13-18-14-13-10-18-14-9-5z" fill="#A0A0A0"/>
</svg>
