<?xml version="1.0" encoding="UTF-8"?>
<svg version="1.1" viewBox="0 0 800 800" width="1280" height="1280" xmlns="http://www.w3.org/2000/svg">
<path transform="translate(367)" d="m0 0h65l34 5 29 6 26 7 28 10 29 13 19 10 23 14 18 13 17 13 13 12 10 9 17 17 7 8 11 13 9 12 14 20 9 15 10 18 13 27 10 26 7 22 7 29 6 35 2 17v57l-5 37-8 38-9 29-11 28-14 29-12 21-10 15-12 17-14 17-9 10-14 15-5 5h-2l-1 3-8 7-10 9-13 10-18 13-19 12-25 14-21 10-23 9-21 7-27 7-31 6-28 4h-59l-34-5-31-6-26-7-31-11-24-11-25-13-21-13-17-12-14-11-15-13-13-12-14-14-7-8-11-13-15-20-14-21-12-21-8-16-11-24-9-25-8-29-4-18-5-30-2-16v-65l7-44 8-33 11-33 12-28 12-23 12-20 15-22 11-14 11-13 11-12 21-21 8-7 12-10 16-12 21-14 24-14 31-15 27-10 26-8 31-7 31-5zm-136 123-15 4-10 6-10 9-6 7-7 14-2 8-1 19v428l2 15 4 11 7 11 8 8 10 7 13 5 9 2 148 1h34l148-1 15-4 12-6 11-9 7-10 5-11 3-14v-328l-156-1-1-171zm270 24-1 2 1 105h96l-4-6-9-9-9-11-13-14-7-8-11-12-7-8-9-10-7-8-11-12-7-8z" fill="#A0A0A0"/>
<path transform="translate(354,543)" d="m0 0h192l1 2v39l-2 1h-191l-1-1v-40z" fill="#A1A1A1"/>
<path transform="translate(353,345)" d="m0 0h193l1 1v39l-1 1h-192l-1-1z" fill="#A0A0A0"/>
<path transform="translate(354,444)" d="m0 0h191l2 2v38l-3 2h-190l-1-1v-40z" fill="#A2A2A2"/>
<path transform="translate(297,337)" d="m0 0 4 1 12 12 4 3-1 5-22 22-7 8-16 16-5-2v-2l-4-2-25-25 2-4 16-16 4 2 9 9 4-1 6-7 5-5z" fill="#A2A2A2"/>
<path transform="translate(298,535)" d="m0 0 7 6 12 11-1 5-3 1-2 4-35 35-5 6-4-2-11-11-8-7-11-11 1-4 8-7 8-9 5 1 7 8 4 2 21-21 5-6z" fill="#A2A2A2"/>
<path transform="translate(297,436)" d="m0 0 4 1v2h2l14 14-1 5-5 4-5 6h-2l-2 4-28 28-2 3-5-1-14-14-8-7-8-8 2-5 10-9 6-7 4 2 7 8 4 2 23-23z" fill="#A1A1A1"/>
</svg>
