<?xml version="1.0" standalone="no"?>
<!DOCTYPE svg PUBLIC "-//W3C//DTD SVG 20010904//EN"
 "http://www.w3.org/TR/2001/REC-SVG-20010904/DTD/svg10.dtd">
<svg version="1.0" xmlns="http://www.w3.org/2000/svg"
 width="360.000000pt" height="360.000000pt" viewBox="0 0 360.000000 360.000000"
 preserveAspectRatio="xMidYMid meet">

<g transform="translate(0.000000,360.000000) scale(0.100000,-0.100000)"
fill="#000000" stroke="none">
<path d="M1585 3584 c-769 -99 -1370 -646 -1540 -1402 -106 -466 -9 -976 260
-1377 95 -141 192 -254 302 -350 485 -424 1144 -561 1746 -364 314 103 586
280 795 519 601 687 598 1705 -8 2388 -384 432 -986 659 -1555 586z m1005
-1077 c45 -22 52 -72 35 -216 -38 -305 -147 -984 -195 -1203 -31 -143 -66
-188 -148 -188 -60 0 -106 26 -422 240 -302 205 -330 228 -330 283 0 44 -5 39
398 426 171 164 222 218 220 235 -2 11 -11 22 -22 24 -11 3 -169 -97 -415
-261 -218 -145 -414 -273 -436 -284 -87 -44 -163 -37 -399 36 -152 48 -184 64
-192 98 -13 52 14 73 211 159 588 258 1016 440 1291 549 286 114 348 130 404
102z"/>
</g>
</svg>
