<?xml version="1.0" encoding="UTF-8"?>
<!DOCTYPE svg PUBLIC "-//W3C//DTD SVG 1.1//EN" "http://www.w3.org/Graphics/SVG/1.1/DTD/svg11.dtd">
<svg xmlns="http://www.w3.org/2000/svg" version="1.1" width="400px" height="400px" style="shape-rendering:geometricPrecision; text-rendering:geometricPrecision; image-rendering:optimizeQuality; fill-rule:evenodd; clip-rule:evenodd" xmlns:xlink="http://www.w3.org/1999/xlink">
<g><path style="opacity:0.99" fill="#36283d" d="M 179.5,-0.5 C 192.833,-0.5 206.167,-0.5 219.5,-0.5C 289.611,8.79624 342.111,44.1296 377,105.5C 389.082,128.901 396.582,153.568 399.5,179.5C 399.5,192.833 399.5,206.167 399.5,219.5C 390.204,289.609 354.871,342.109 293.5,377C 270.099,389.082 245.432,396.582 219.5,399.5C 206.167,399.5 192.833,399.5 179.5,399.5C 109.391,390.204 56.8905,354.871 22,293.5C 9.9184,270.099 2.4184,245.432 -0.5,219.5C -0.5,206.167 -0.5,192.833 -0.5,179.5C 11.8043,94.3556 58.4709,37.1889 139.5,8C 152.765,4.18196 166.099,1.34862 179.5,-0.5 Z M 282.5,114.5 C 293.747,124.243 304.58,134.576 315,145.5C 315.667,146.167 315.667,146.833 315,147.5C 270,192.5 225,237.5 180,282.5C 151.653,254.32 123.486,225.986 95.5,197.5C 104.833,187.5 114.5,177.833 124.5,168.5C 141.653,185.153 158.653,201.986 175.5,219C 176.5,219.667 177.5,219.667 178.5,219C 213.368,184.299 248.035,149.465 282.5,114.5 Z"/></g>
</svg>
