<?xml version="1.0" encoding="UTF-8"?>
<!DOCTYPE svg PUBLIC "-//W3C//DTD SVG 1.1//EN" "http://www.w3.org/Graphics/SVG/1.1/DTD/svg11.dtd">
<svg xmlns="http://www.w3.org/2000/svg" version="1.1" width="360px" height="360px" style="shape-rendering:geometricPrecision; text-rendering:geometricPrecision; image-rendering:optimizeQuality; fill-rule:evenodd; clip-rule:evenodd" xmlns:xlink="http://www.w3.org/1999/xlink">
<g><path style="opacity:0.985" fill="#604c8d" d="M 158.5,-0.5 C 172.833,-0.5 187.167,-0.5 201.5,-0.5C 277.463,11.9584 327.963,54.6251 353,127.5C 355.639,137.541 357.806,147.541 359.5,157.5C 359.5,172.167 359.5,186.833 359.5,201.5C 347.048,277.458 304.381,327.958 231.5,353C 221.483,355.719 211.483,357.885 201.5,359.5C 186.5,359.5 171.5,359.5 156.5,359.5C 81.0829,346.587 30.9162,303.92 6,231.5C 3.36072,221.459 1.19405,211.459 -0.5,201.5C -0.5,186.833 -0.5,172.167 -0.5,157.5C 9.74636,91.0932 45.0797,43.2599 105.5,14C 122.651,6.79848 140.317,1.96515 158.5,-0.5 Z M 250.5,108.5 C 258.055,107.886 262.055,111.386 262.5,119C 256.687,163.714 249.52,208.214 241,252.5C 240.23,259.219 237.063,264.386 231.5,268C 228.833,268.667 226.167,268.667 223.5,268C 201.988,255.08 180.988,241.414 160.5,227C 157.123,224.477 154.79,221.31 153.5,217.5C 153.622,215.209 154.455,213.209 156,211.5C 176.051,192.96 195.718,173.96 215,154.5C 216.833,148.333 214.667,146.167 208.5,148C 180.175,167.165 151.508,185.831 122.5,204C 120.153,204.436 117.819,204.936 115.5,205.5C 99.971,202.712 84.971,198.212 70.5,192C 67.6044,188.329 68.271,185.329 72.5,183C 114.266,164.117 156.266,145.783 198.5,128C 215.688,120.775 233.021,114.275 250.5,108.5 Z"/></g>
</svg>
